<svg xmlns="http://www.w3.org/2000/svg" width="40" height="29" viewBox="0 0 40 29" fill="none">
<mask id="mask0_1_1574" style="mask-type:luminance" maskUnits="userSpaceOnUse" x="0" y="0" width="40" height="29">
<path d="M40 0.621216H0V28.3793H40V0.621216Z" fill="white"/>
</mask>
<g mask="url(#mask0_1_1574)">
<path d="M9.54014 26.9539C6.16203 26.0239 4.03503 24.6059 2.56641 22.3009C1.73868 21.0031 0.729919 17.7064 0.729919 16.3013C0.729919 13.5513 2.56787 8.62498 3.96495 7.62626C5.76349 6.34138 10.127 6.21832 13.892 7.34582C17.0015 8.27871 16.8993 8.28444 20.146 6.98096C22.6496 5.97651 23.0993 5.7347 26.3051 3.68146C30.6949 0.86845 30.5358 0.899929 33.5839 2.25349C36.4234 3.51406 37.7343 5.10227 38.8175 8.58778C39.9387 12.1935 38.5547 15.6261 34.3431 19.6782C30.5796 23.2996 21.7401 27.2071 17.2584 27.2315C16.7533 27.2329 16.1051 27.3331 15.8175 27.4504C15.4394 27.6049 14.746 27.665 13.3401 27.665C12.2657 27.665 11.3372 27.6064 11.2774 27.5334C11.2175 27.4604 10.435 27.2001 9.54014 26.9539ZM24.7898 22.929C34.4438 18.4175 38.3533 13.4168 36.3504 8.14279C35.4423 5.75045 33.1416 3.83599 31.1854 3.84601C30.292 3.8503 30.292 3.8503 27.0803 5.84344C25.1416 7.04677 23.2905 8.0784 22.4088 8.44613C20.2496 9.34469 20.3781 10.0658 22.6949 10.0658C24.3898 10.0658 25.8993 9.53356 27.5912 8.33881C29.1839 7.21418 29.8321 7.01101 30.362 7.47173C31.6934 8.6307 28.4438 11.1375 24.473 12.0146C22.1635 12.524 19.0394 11.9402 15.9839 10.4278C12.4803 8.69223 8.11386 8.12991 6.03503 9.1458C4.16203 10.0615 2.52554 14.7776 3.1197 17.549C3.70218 20.2691 5.49342 22.8202 7.64379 23.9935C8.14598 24.2682 9.32554 24.7232 10.2642 25.0051C11.7956 25.4659 12.1022 25.5131 13.2482 25.4601C18.9299 25.2025 20.8029 24.7919 24.7898 22.929Z" fill="#ffffff"/>
</g>
</svg>