<svg xmlns="http://www.w3.org/2000/svg" width="30" height="25" viewBox="0 0 30 25" fill="none">
<g clip-path="url(#clip0_1_1593)">
<mask id="mask0_1_1593" style="mask-type:luminance" maskUnits="userSpaceOnUse" x="0" y="0" width="30" height="25">
<path d="M29.5 0.5H0.5V24.5H29.5V0.5Z" fill="white"/>
</mask>
<g mask="url(#mask0_1_1593)">
<path d="M3.41797 22.324C3.31372 21.1822 3.59653 14.1176 3.85537 11.4313C3.92128 10.7457 4.01595 9.19168 4.06508 7.9798C4.16574 5.50614 4.25921 5.20435 4.96264 5.0701C5.7943 4.91327 6.17297 5.5501 5.96087 6.75129C5.91653 7.00554 5.82665 8.60356 5.76314 10.3026C5.69843 12.0016 5.59417 14.1937 5.53186 15.1739C5.2802 19.1291 5.25624 21.3972 5.46475 21.6455C5.71041 21.9402 7.00702 21.9877 16.8383 22.0709C23.3465 22.1255 24.0307 22.1137 24.244 21.9378C24.5041 21.7228 24.4993 16.7529 24.2345 12.4412C24.1709 11.3956 24.0631 9.41742 23.996 8.04515C23.7324 2.68436 23.8342 2.95525 22.0559 2.89584C20.2943 2.83881 20.1936 2.9101 19.5717 4.68515C18.7712 6.96871 17.9228 7.72554 15.6459 8.1901C14.6249 8.39921 14.6249 8.39921 13.3667 8.00713C11.2636 7.35366 10.6009 6.62178 10.0904 4.39168C9.71648 2.76039 10.0592 2.87683 5.64091 2.87683C1.38917 2.87683 1.20463 2.84119 1.20582 2.03802C1.20822 1.02812 0.226774 1.09465 14.9904 1.09465C29.6881 1.09465 28.7594 1.03406 28.8805 2.00237C28.9643 2.67129 28.6072 2.87683 27.3729 2.87445C25.4771 2.87089 25.4807 2.85544 25.9074 9.64911C26.2441 15.0123 26.4454 22.4903 26.2657 22.975C26.1914 23.1747 25.9289 23.4574 25.6677 23.619C25.2015 23.9065 25.2015 23.9065 14.6477 23.9065C4.09504 23.9065 4.09504 23.9065 3.78946 23.4824C3.57376 23.1818 3.46591 22.8444 3.41797 22.324ZM17.6064 3.11327C17.0612 2.78297 12.8681 2.75564 12.1875 3.07762C11.5739 3.36752 11.6554 4.19921 12.4032 5.27802C12.5985 5.55841 12.9724 5.8495 13.435 6.08C14.0078 6.36515 14.3157 6.44119 14.8957 6.44119C16.8958 6.44119 18.9462 3.92356 17.6064 3.11327Z" fill="#ffffff"/>
</g>
</g>
<defs>
<clipPath id="clip0_1_1593">
<rect width="29" height="24" fill="white" transform="translate(0.5 0.5)"/>
</clipPath>
</defs>
</svg>