<svg xmlns="http://www.w3.org/2000/svg" width="24" height="29" viewBox="0 0 24 29" fill="none">
<g clip-path="url(#clip0_1_1602)">
<mask id="mask0_1_1602" style="mask-type:luminance" maskUnits="userSpaceOnUse" x="0" y="0" width="24" height="29">
<path d="M24 0.5H0V28.5H24V0.5Z" fill="white"/>
</mask>
<g mask="url(#mask0_1_1602)">
<path d="M4.93068 24.9579C3.29702 23.8331 1.73346 22.7933 1.45544 22.6449C0.54415 22.1615 0.594051 22.6342 0.595239 14.3909C0.595239 3.06168 0.591673 3.06766 6.9588 2.05894C8.58771 1.80168 10.3366 1.4798 10.844 1.34339C12.2055 0.979626 12.5703 1.01433 13.8487 1.62937C15.6344 2.48971 16.8665 3.59775 18.1259 5.47518C18.695 6.32475 19.5885 7.55125 20.1125 8.1998C21.4586 9.86544 22.2095 11.5083 22.6812 13.813C22.8725 14.7499 23.1137 15.8699 23.217 16.3042C23.3418 16.826 23.4059 17.6456 23.4059 18.7309C23.4059 23.5699 21.057 25.963 15.0297 27.2649C13.1703 27.6658 12.082 27.8393 11.2574 27.8644C10.1537 27.8991 10.0467 27.8788 8.99999 27.4516C8.16237 27.1094 7.19524 26.5171 4.93068 24.9579ZM20.1754 23.1942C21.1628 22.1041 21.644 18.713 21.2032 15.9345C20.6709 12.5781 20.2562 11.6974 17.3667 7.78339C14.4226 3.79638 13.7156 3.18971 12.0238 3.1945C8.25861 3.20407 6.90059 4.02971 8.73029 5.19758C9.70811 5.82099 10.4293 5.89997 11.8562 5.54099C13.3651 5.16048 13.9022 5.55655 13.2903 6.60236C12.8887 7.2892 12.1865 7.568 10.6586 7.64817C9.02851 7.73313 8.14692 7.28681 6.30653 5.44646C4.8392 3.97826 4.74415 3.95193 3.7592 4.74766C2.51524 5.75159 2.61385 5.09826 2.61385 12.3639C2.61385 16.7063 2.56989 18.9331 2.47603 19.3938C2.20395 20.7328 2.38098 20.9242 5.99999 23.2097C7.699 24.283 9.42296 25.3193 9.83167 25.5131C10.5101 25.8362 10.6836 25.8661 11.8515 25.8661C14.3109 25.8649 19.1667 24.3058 20.1754 23.1942Z" fill="#ffffff"/>
<path d="M8.13742 20.9661C8.82415 20.0232 9.09504 19.1293 8.92752 18.3563C8.86098 18.0464 8.71841 17.3739 8.61029 16.863C8.14217 14.6457 7.26652 13.771 5.40593 13.6657C4.33662 13.6047 4.33662 13.6047 4.30098 12.8628C4.25821 11.9582 4.51722 11.75 5.68989 11.75C8.0495 11.75 9.88989 13.6621 10.7513 17.009C11.1624 18.6076 10.7881 20.862 9.94573 21.8647C9.72593 22.1256 9.51207 22.4343 9.47049 22.5491C9.41108 22.7107 9.25662 22.7585 8.79563 22.7585C8.44276 22.7585 8.07682 22.6784 7.90098 22.5623C7.4495 22.2656 7.51484 21.8192 8.13742 20.9661Z" fill="#ffffff"/>
</g>
</g>
<defs>
<clipPath id="clip0_1_1602">
<rect width="24" height="28" fill="white" transform="translate(0 0.5)"/>
</clipPath>
</defs>
</svg>