<svg xmlns="http://www.w3.org/2000/svg" width="28" height="26" viewBox="0 0 28 26" fill="none">
<g clip-path="url(#clip0_1_1583)">
<mask id="mask0_1_1583" style="mask-type:luminance" maskUnits="userSpaceOnUse" x="0" y="0" width="28" height="26">
<path d="M28 0.5H0V25.5H28V0.5Z" fill="white"/>
</mask>
<g mask="url(#mask0_1_1583)">
<path d="M1.36651 19.0381C0.268041 16.1881 0.239323 13.994 1.25642 10.6059C1.97676 8.20949 2.15745 7.86782 2.873 7.56068C4.00856 7.07258 4.42736 7.94401 3.72856 9.34282C1.93249 12.9369 1.96121 16.4964 3.81471 20.0369C4.70736 21.7404 4.73967 21.7476 5.6036 20.4238C6.39095 19.2214 6.84206 18.8559 8.62856 17.9809C9.77847 17.4178 9.77847 17.4178 10.7046 15.6571C11.9574 13.275 12.7986 12.4119 14.9644 11.2881C16.7354 10.3702 16.9843 10.1297 17.9846 8.37973C18.7074 7.11663 18.8103 6.99639 19.7268 6.33449C21.1077 5.33806 21.0969 5.15592 19.6156 4.39997C15.6357 2.37139 11.2407 2.64639 7.43915 5.16187C5.29608 6.57973 5.39779 6.58925 3.54548 4.81782C2.78445 4.08925 2.10121 3.34997 2.02821 3.17497C1.53163 1.98806 3.41984 1.72735 4.25745 2.86782C5.10821 4.02616 5.66343 4.19044 6.51539 3.53687C8.49693 2.0202 13.574 0.732108 15.4814 1.26187C15.8188 1.35592 16.4997 1.48211 16.9962 1.54401C18.4968 1.73211 21.0862 2.81544 22.3031 3.76544C22.8451 4.18925 23.4889 4.63568 23.733 4.7583C25.0863 5.44044 24.4868 6.92854 22.8607 6.92258C21.5744 6.91782 19.7232 8.6583 19.0161 10.5333C18.559 11.7476 18.4573 11.8416 16.9711 12.4143C14.5432 13.3488 13.3802 14.475 12.1609 17.0714C11.3077 18.8892 11.3077 18.8892 10.025 19.4381C7.69403 20.4333 6.36702 21.8404 6.22223 23.4654C6.15522 24.2345 6.08582 24.4726 5.87642 24.6631C5.73283 24.794 5.53539 24.9012 5.43967 24.9012C5.34394 24.9012 4.90599 24.5988 4.46685 24.2297C3.35403 23.2928 2.37522 21.6523 1.36651 19.0381Z" fill="#ffffff"/>
<path d="M19.6036 21.3003C18.5063 20.2396 17.3217 19.1003 16.9711 18.767C15.0709 16.961 14.6665 16.211 15.2361 15.5515C15.826 14.8694 16.0677 15.0289 19.4277 18.3325C23.5655 22.4027 23.4841 22.3575 24.6304 21.1694C25.62 20.1432 25.5662 19.8646 24.0884 18.3503C23.106 17.3432 23.1586 16.5337 24.2092 16.4801C25.0983 16.4337 25.352 16.5944 26.308 17.8003C27.854 19.7515 27.1157 22.686 24.9068 23.3646C24.4868 23.4944 23.8036 23.5991 23.38 23.5991C22.96 23.5991 22.3868 23.5158 22.1068 23.4134C21.7359 23.2777 21.0598 22.7075 19.6036 21.3003Z" fill="#ffffff" />
</g>
</g>
<defs>
<clipPath id="clip0_1_1583">
<rect width="28" height="25" fill="white" transform="translate(0 0.5)"/>
</clipPath>
</defs>
</svg>